<?xml version="1.0" encoding="iso-8859-1"?>
<!-- Generator: Adobe Illustrator 16.0.0, SVG Export Plug-In . SVG Version: 6.00 Build 0)  -->
<!DOCTYPE svg PUBLIC "-//W3C//DTD SVG 1.1//EN" "http://www.w3.org/Graphics/SVG/1.1/DTD/svg11.dtd">
<svg version="1.1" id="Capa_1" xmlns="http://www.w3.org/2000/svg" xmlns:xlink="http://www.w3.org/1999/xlink" x="0px" y="0px"
	 width="612px" height="612px" viewBox="0 0 612 612" style="enable-background:new 0 0 612 612;" xml:space="preserve">
<g>
	<g id="Menu_1_">
		<g>
			<path d="M229.5,153H153v76.5h76.5V153z M229.5,267.75H153v76.5h76.5V267.75z M229.5,382.5H153V459h76.5V382.5z M459,382.5H306
				V459h153V382.5z M459,153H306v76.5h153V153z M459,267.75H306v76.5h153V267.75z M573.75,0H38.25C17.136,0,0,17.136,0,38.25v535.5
				C0,594.864,17.136,612,38.25,612h535.5c21.114,0,38.25-17.136,38.25-38.25V38.25C612,17.136,594.864,0,573.75,0z M535.5,535.5
				h-459v-459h459V535.5z"/>
		</g>
	</g>
</g>
<g>
</g>
<g>
</g>
<g>
</g>
<g>
</g>
<g>
</g>
<g>
</g>
<g>
</g>
<g>
</g>
<g>
</g>
<g>
</g>
<g>
</g>
<g>
</g>
<g>
</g>
<g>
</g>
<g>
</g>
</svg>
